<svg width="25" height="21" viewBox="0 0 25 21" fill="none" xmlns="http://www.w3.org/2000/svg">
<path d="M15.3689 19.5874L23.5825 11.4366C24.3349 10.6854 24.3349 9.46621 23.5825 8.71758L15.3689 0.561968C14.6102 -0.189173 13.3821 -0.185404 12.6235 0.561968C11.8723 1.31437 11.8723 2.52856 12.6235 3.28096L17.4286 8.04838L2.0144 8.04838C0.900896 8.04838 1.14441e-05 8.94802 1.14441e-05 10.0615C1.14441e-05 11.1738 0.900896 12.0747 2.0144 12.0747L17.4576 12.0747L12.6235 16.8672C11.8723 17.6183 11.8723 18.8338 12.6235 19.5849C13.3809 20.3373 14.6089 20.3386 15.3689 19.5875V19.5874Z" fill="white"/>
</svg>
