<svg width="47" height="48" viewBox="0 0 47 48" fill="none" xmlns="http://www.w3.org/2000/svg">
<g filter="url(#filter0_d)">
<path d="M42.0371 32.1882H33.7503C33.4851 32.1882 33.2688 32.4062 33.2688 32.6735C33.2688 32.9408 33.4851 33.1588 33.7503 33.1588H42.0371C42.3022 33.1588 42.5185 32.9408 42.5185 32.6735C42.5185 32.4062 42.3022 32.1882 42.0371 32.1882Z" fill="white"/>
<path d="M42.037 38.34H32.7459C32.4807 38.34 32.2644 38.558 32.2644 38.8253C32.2644 39.0926 32.4807 39.3107 32.7459 39.3107H42.037C42.3022 39.3107 42.5185 39.0926 42.5185 38.8253C42.5185 38.558 42.3022 38.34 42.037 38.34Z" fill="white"/>
<path d="M4.48148 35.6916H11.9743C12.2395 35.6916 12.4558 35.4736 12.4558 35.2063C12.4558 34.939 12.2395 34.721 11.9743 34.721H4.48148C4.21629 34.721 4 34.939 4 35.2063C4 35.4755 4.21629 35.6916 4.48148 35.6916Z" fill="white"/>
<path fill-rule="evenodd" clip-rule="evenodd" d="M7.74484 0.534702C7.93101 0.441813 8.15295 0.479726 8.29965 0.627597L8.29989 0.627825C8.44471 0.775671 8.48232 1.00127 8.38828 1.18895C8.08924 1.79181 7.93878 2.43446 7.93878 3.09988C7.93878 5.47715 9.86846 7.41274 12.2383 7.41274C12.9022 7.41274 13.5435 7.25918 14.1454 6.95965C14.3315 6.86676 14.5535 6.90467 14.7002 7.05255C14.8469 7.20039 14.8826 7.42599 14.7905 7.61178C13.8933 9.42603 12.0878 10.5521 10.0791 10.5521C7.17683 10.5521 4.81647 8.18032 4.81647 5.26653C4.81647 3.24752 5.93928 1.43521 7.74484 0.534702ZM13.1277 8.30712C12.8342 8.3583 12.5389 8.38295 12.238 8.38295L12.2381 8.38312C9.33597 8.38312 6.9756 6.01327 6.97748 3.09948C6.97748 2.79616 7.00193 2.4985 7.05271 2.20466C6.24775 2.99897 5.77943 4.09093 5.77943 5.26632C5.77943 7.64549 7.70911 9.58107 10.0789 9.58107C11.2506 9.58107 12.3359 9.11284 13.1277 8.30712Z" fill="white"/>
<path fill-rule="evenodd" clip-rule="evenodd" d="M42.039 24.41H42.0371C41.7719 24.41 41.5575 24.6261 41.5556 24.8934L41.5443 27.4849L23.677 0.92356C23.4984 0.656258 23.0602 0.656258 22.8796 0.92356L5.02532 27.466L5.03661 24.7152C5.03849 24.4479 4.8222 24.228 4.55701 24.228H4.55513C4.28994 24.228 4.07553 24.4441 4.07365 24.7114L4.05672 29.0527C4.05484 29.2669 4.19402 29.4546 4.39526 29.5191C4.44228 29.5342 4.4893 29.5399 4.5382 29.5399C4.69431 29.5399 4.84477 29.4622 4.93693 29.3276L7.7468 25.1512V29.0565C7.7468 29.3238 7.9631 29.5418 8.22829 29.5418H18.9523C19.4996 31.3314 21.1603 32.6357 23.1201 32.6357C23.1267 32.6357 23.1328 32.6352 23.1389 32.6348L23.1389 32.6348C23.145 32.6343 23.1512 32.6338 23.1577 32.6338C23.1605 32.6338 23.1638 32.6343 23.1671 32.6348L23.1671 32.6348L23.1672 32.6348C23.1705 32.6352 23.1737 32.6357 23.1765 32.6357C23.1825 32.6357 23.1885 32.6351 23.1944 32.6344L23.2048 32.6329C23.2142 32.6314 23.2236 32.63 23.233 32.63C25.1419 32.5807 26.75 31.2954 27.2861 29.5418H38.3303C38.5955 29.5418 38.8118 29.3238 38.8118 29.0565V25.1512L41.6217 29.3276C41.7402 29.5039 41.9583 29.5816 42.1596 29.5191C42.3608 29.4565 42.5 29.2688 42.5 29.0565L42.5188 24.8972C42.5207 24.628 42.3063 24.4119 42.0392 24.41L42.039 24.41ZM23.2328 31.6597L23.2274 31.66C23.2031 31.6618 23.1803 31.6634 23.1576 31.6634C22.3225 31.6521 21.6454 30.9696 21.6454 30.1317C21.6454 29.58 22.4504 28.3099 23.1764 27.3525C23.9024 28.3099 24.7074 29.58 24.7074 30.1317C24.7074 30.9563 24.051 31.6293 23.2328 31.6597L23.2328 31.6597ZM25.6684 30.1298C25.6684 30.2738 25.6496 30.4103 25.6271 30.5468L25.6271 30.5469C26.1781 29.9402 26.5166 29.1383 26.5129 28.2568C26.5129 26.8027 24.3236 23.7088 23.1162 22.1695C21.9106 23.7088 19.7195 26.8046 19.7195 28.2568C19.7195 29.2122 20.1163 30.0767 20.7501 30.6966C20.7088 30.5127 20.6805 30.325 20.6805 30.1298C20.6805 28.9013 22.4504 26.6927 22.804 26.2624C22.9864 26.0406 23.3626 26.0406 23.545 26.2624C23.9005 26.6927 25.6684 28.9013 25.6684 30.1298ZM23.4905 21.089C23.3081 20.8672 22.9319 20.8672 22.7494 21.089C22.3413 21.5838 18.7603 25.997 18.7603 28.2571C18.7603 28.3332 18.7651 28.4083 18.7699 28.4832V28.4832C18.7718 28.5128 18.7737 28.5423 18.7753 28.5718H13.9268V25.3717C14.555 24.8599 16.637 23.0854 18.7455 20.4521C20.457 18.3156 22.4111 15.2956 23.297 11.8528C24.1828 15.2974 26.1369 18.3152 27.8485 20.4521C29.9568 23.0853 32.0388 24.8597 32.6671 25.3717V28.5718H27.4628C27.4703 28.4675 27.4778 28.3633 27.4778 28.2571C27.4797 25.9974 23.8987 21.584 23.4906 21.089H23.4905ZM33.6278 28.5716H37.8483L37.8508 23.7203L23.2802 2.06115L8.70957 23.7203V28.5716H12.962V25.1365C12.962 24.9848 13.0316 24.8426 13.1501 24.7516L13.1504 24.7514C13.2666 24.6596 22.8134 17.1172 22.8134 8.19022C22.8134 7.92291 23.0297 7.7049 23.2949 7.7049C23.5601 7.7049 23.7764 7.92291 23.7764 8.19022C23.7764 17.1141 33.3165 24.6542 33.4393 24.7513L33.4397 24.7516C33.5582 24.8445 33.6278 24.9867 33.6278 25.1365V28.5716Z" fill="white"/>
<path fill-rule="evenodd" clip-rule="evenodd" d="M30.596 34.433C30.6393 34.5543 30.6299 34.6908 30.5734 34.8064L30.5738 34.8064C30.5154 34.924 30.4158 35.0131 30.2916 35.0548L28.5105 35.6482L30.2221 36.1354C30.3462 36.1714 30.4515 36.2548 30.5136 36.3686C30.5756 36.4823 30.5888 36.615 30.5531 36.7401L29.9381 38.8293C29.876 39.0397 29.6861 39.1762 29.4773 39.1762C29.434 39.1762 29.3889 39.1686 29.3456 39.1572L23.2178 37.4112L17.5941 39.2861C17.5452 39.3032 17.4944 39.3108 17.4437 39.3108C17.2443 39.3108 17.0581 39.1857 16.9923 38.9847L16.2832 36.924C16.2399 36.8027 16.2493 36.6662 16.3058 36.5506C16.3622 36.433 16.4637 36.3458 16.586 36.3041L18.0718 35.8093L16.2869 35.3012C16.1628 35.2652 16.0575 35.1818 15.9954 35.0681C15.9334 34.9543 15.9202 34.8216 15.9559 34.6965L16.5709 32.6074C16.6462 32.3514 16.9095 32.2055 17.1634 32.2775L23.3644 34.0443L29.2813 32.0708C29.5315 31.9874 29.8004 32.122 29.8869 32.3723L30.596 34.433ZM17.3591 33.341L17.0168 34.4993L19.7026 35.2652L21.7338 34.5884L17.3591 33.341ZM29.4901 36.9354L29.1478 38.0937L24.8483 36.8671L26.8796 36.1904L29.4901 36.9354ZM17.3498 37.0718L17.7429 38.215L29.5262 34.287L29.1331 33.1438L17.3498 37.0718Z" fill="white"/>
</g>
<defs>
<filter id="filter0_d" x="0" y="0.484253" width="46.5188" height="46.8265" filterUnits="userSpaceOnUse" color-interpolation-filters="sRGB">
<feFlood flood-opacity="0" result="BackgroundImageFix"/>
<feColorMatrix in="SourceAlpha" type="matrix" values="0 0 0 0 0 0 0 0 0 0 0 0 0 0 0 0 0 0 127 0"/>
<feOffset dy="4"/>
<feGaussianBlur stdDeviation="2"/>
<feColorMatrix type="matrix" values="0 0 0 0 0 0 0 0 0 0 0 0 0 0 0 0 0 0 0.25 0"/>
<feBlend mode="normal" in2="BackgroundImageFix" result="effect1_dropShadow"/>
<feBlend mode="normal" in="SourceGraphic" in2="effect1_dropShadow" result="shape"/>
</filter>
</defs>
</svg>
